<svg t="1749645590186" class="icon" viewBox="0 0 1024 1024" version="1.1" xmlns="http://www.w3.org/2000/svg" p-id="28301" width="64" height="64"><path d="M946.037818 831.824073h45.634319v45.634319h-45.634319zM946.037818 786.104456h45.634319v45.719617h-45.634319z" fill="#340B1D" p-id="28302"></path><path d="M946.037818 603.311287h45.634319v45.719617h-45.634319zM946.037818 557.676968h45.634319v45.634319h-45.634319z" fill="#360C18" p-id="28303"></path><path d="M946.037818 511.957351h45.634319v45.719617h-45.634319zM946.037818 466.323032h45.634319v45.634319h-45.634319z" fill="#360C18" p-id="28304"></path><path d="M900.318201 877.458392h45.719617v45.719617h-45.719617z" fill="#571F32" p-id="28305"></path><path d="M900.318201 831.824073h45.719617v45.634319h-45.719617zM900.318201 786.104456h45.719617v45.719617h-45.719617z" fill="#EA4A6E" p-id="28306"></path><path d="M900.318201 740.38484h45.719617v45.719616h-45.719617zM900.318201 649.030904h45.719617v45.719617h-45.719617z" fill="#360C18" p-id="28307"></path><path d="M900.318201 603.311287h45.719617v45.719617h-45.719617z" fill="#ED799C" p-id="28308"></path><path d="M900.318201 557.676968h45.719617v45.634319h-45.719617z" fill="#FA9BB7" p-id="28309"></path><path d="M900.318201 511.957351h45.719617v45.719617h-45.719617z" fill="#FDA8C7" p-id="28310"></path><path d="M900.318201 466.323032h45.719617v45.634319h-45.719617z" fill="#EA7D9A" p-id="28311"></path><path d="M900.318201 420.603415h45.719617v45.719617h-45.719617z" fill="#360C18" p-id="28312"></path><path d="M854.598584 877.458392h45.719617v45.719617h-45.719617z" fill="#571F32" p-id="28313"></path><path d="M854.598584 831.824073h45.719617v45.634319h-45.719617z" fill="#EA4A6E" p-id="28314"></path><path d="M854.598584 786.104456h45.719617v45.719617h-45.719617z" fill="#FFDBE7" p-id="28315"></path><path d="M854.598584 740.38484h45.719617v45.719616h-45.719617z" fill="#FF7799" p-id="28316"></path><path d="M854.598584 694.750521h45.719617v45.634319h-45.719617zM854.598584 649.030904h45.719617v45.719617h-45.719617z" fill="#360C18" p-id="28317"></path><path d="M854.598584 603.311287h45.719617v45.719617h-45.719617z" fill="#ED799C" p-id="28318"></path><path d="M854.598584 557.676968h45.719617v45.634319h-45.719617z" fill="#FDA8C7" p-id="28319"></path><path d="M854.598584 511.957351h45.719617v45.719617h-45.719617zM854.598584 466.323032h45.719617v45.634319h-45.719617z" fill="#FDA8C7" p-id="28320"></path><path d="M854.598584 420.603415h45.719617v45.719617h-45.719617zM854.598584 374.883798h45.719617v45.719617h-45.719617zM854.598584 329.249479h45.719617v45.634319h-45.719617z" fill="#360C18" p-id="28321"></path><path d="M808.964265 877.458392h45.634319v45.719617h-45.634319z" fill="#571F32" p-id="28322"></path><path d="M808.964265 831.824073h45.634319v45.634319h-45.634319z" fill="#EA4A6E" p-id="28323"></path><path d="M808.964265 786.104456h45.634319v45.719617h-45.634319z" fill="#FF6084" p-id="28324"></path><path d="M808.964265 740.38484h45.634319v45.719616h-45.634319z" fill="#FF7799" p-id="28325"></path><path d="M808.964265 694.750521h45.634319v45.634319h-45.634319z" fill="#EA4A6E" p-id="28326"></path><path d="M808.964265 649.030904h45.634319v45.719617h-45.634319z" fill="#ED799C" p-id="28327"></path><path d="M808.964265 603.311287h45.634319v45.719617h-45.634319z" fill="#FA9BB7" p-id="28328"></path><path d="M808.964265 557.676968h45.634319v45.634319h-45.634319z" fill="#FDA8C7" p-id="28329"></path><path d="M808.964265 511.957351h45.634319v45.719617h-45.634319zM808.964265 466.323032h45.634319v45.634319h-45.634319zM808.964265 420.603415h45.634319v45.719617h-45.634319zM808.964265 374.883798h45.634319v45.719617h-45.634319z" fill="#FDA8C7" p-id="28330"></path><path d="M808.964265 329.249479h45.634319v45.634319h-45.634319z" fill="#EA7D9A" p-id="28331"></path><path d="M808.964265 283.529863h45.634319v45.719616h-45.634319zM808.964265 237.810246h45.634319v45.719617h-45.634319z" fill="#360C18" p-id="28332"></path><path d="M763.244648 877.458392h45.719617v45.719617h-45.719617z" fill="#571F32" p-id="28333"></path><path d="M763.244648 831.824073h45.719617v45.634319h-45.719617z" fill="#EA4A6E" p-id="28334"></path><path d="M763.244648 786.104456h45.719617v45.719617h-45.719617zM763.244648 740.38484h45.719617v45.719616h-45.719617z" fill="#FF6084" p-id="28335"></path><path d="M763.244648 694.750521h45.719617v45.634319h-45.719617z" fill="#ED799C" p-id="28336"></path><path d="M763.244648 649.030904h45.719617v45.719617h-45.719617zM763.244648 603.311287h45.719617v45.719617h-45.719617z" fill="#FA9BB7" p-id="28337"></path><path d="M763.244648 557.676968h45.719617v45.634319h-45.719617z" fill="#FDA8C7" p-id="28338"></path><path d="M763.244648 511.957351h45.719617v45.719617h-45.719617z" fill="#FDA8C7" p-id="28339"></path><path d="M763.244648 466.323032h45.719617v45.634319h-45.719617z" fill="#FA4F77" p-id="28340"></path><path d="M763.244648 420.603415h45.719617v45.719617h-45.719617zM763.244648 374.883798h45.719617v45.719617h-45.719617zM763.244648 329.249479h45.719617v45.634319h-45.719617zM763.244648 283.529863h45.719617v45.719616h-45.719617zM763.244648 237.810246h45.719617v45.719617h-45.719617z" fill="#FDA8C7" p-id="28341"></path><path d="M763.244648 192.175927h45.719617v45.634319h-45.719617z" fill="#58212F" p-id="28342"></path><path d="M717.525031 877.458392h45.719617v45.719617h-45.719617z" fill="#571F32" p-id="28343"></path><path d="M717.525031 831.824073h45.719617v45.634319h-45.719617zM717.525031 786.104456h45.719617v45.719617h-45.719617zM717.525031 740.38484h45.719617v45.719616h-45.719617z" fill="#EA4A6E" p-id="28344"></path><path d="M717.525031 694.750521h45.719617v45.634319h-45.719617zM717.525031 649.030904h45.719617v45.719617h-45.719617z" fill="#FA9BB7" p-id="28345"></path><path d="M717.525031 603.311287h45.719617v45.719617h-45.719617zM717.525031 557.676968h45.719617v45.634319h-45.719617z" fill="#FDA8C7" p-id="28346"></path><path d="M717.525031 511.957351h45.719617v45.719617h-45.719617z" fill="#FDA8C7" p-id="28347"></path><path d="M717.525031 466.323032h45.719617v45.634319h-45.719617z" fill="#FA4F77" p-id="28348"></path><path d="M717.525031 420.603415h45.719617v45.719617h-45.719617zM717.525031 374.883798h45.719617v45.719617h-45.719617zM717.525031 329.249479h45.719617v45.634319h-45.719617zM717.525031 283.529863h45.719617v45.719616h-45.719617zM717.525031 237.810246h45.719617v45.719617h-45.719617z" fill="#FDA8C7" p-id="28349"></path><path d="M717.525031 192.175927h45.719617v45.634319h-45.719617zM717.525031 146.45631h45.719617v45.719617h-45.719617z" fill="#58212F" p-id="28350"></path><path d="M671.890712 877.458392h45.634319v45.719617h-45.634319z" fill="#571F32" p-id="28351"></path><path d="M671.890712 831.824073h45.634319v45.634319h-45.634319zM671.890712 786.104456h45.634319v45.719617h-45.634319z" fill="#EA4A6E" p-id="28352"></path><path d="M671.890712 740.38484h45.634319v45.719616h-45.634319zM671.890712 694.750521h45.634319v45.634319h-45.634319z" fill="#FA9BB7" p-id="28353"></path><path d="M671.890712 649.030904h45.634319v45.719617h-45.634319zM671.890712 603.311287h45.634319v45.719617h-45.634319zM671.890712 557.676968h45.634319v45.634319h-45.634319z" fill="#FDA8C7" p-id="28354"></path><path d="M671.890712 511.957351h45.634319v45.719617h-45.634319z" fill="#FDA8C7" p-id="28355"></path><path d="M671.890712 466.323032h45.634319v45.634319h-45.634319zM671.890712 420.603415h45.634319v45.719617h-45.634319zM671.890712 374.883798h45.634319v45.719617h-45.634319z" fill="#360C18" p-id="28356"></path><path d="M671.890712 329.249479h45.634319v45.634319h-45.634319z" fill="#863C53" p-id="28357"></path><path d="M671.890712 283.529863h45.634319v45.719616h-45.634319z" fill="#EA7D9A" p-id="28358"></path><path d="M671.890712 237.810246h45.634319v45.719617h-45.634319z" fill="#FDA8C7" p-id="28359"></path><path d="M671.890712 192.175927h45.634319v45.634319h-45.634319z" fill="#FDA8C7" p-id="28360"></path><path d="M671.890712 146.45631h45.634319v45.719617h-45.634319z" fill="#58212F" p-id="28361"></path><path d="M626.171095 877.458392h45.719617v45.719617h-45.719617z" fill="#360C18" p-id="28362"></path><path d="M626.171095 831.824073h45.719617v45.634319h-45.719617z" fill="#EA4A6E" p-id="28363"></path><path d="M626.171095 786.104456h45.719617v45.719617h-45.719617z" fill="#ED799C" p-id="28364"></path><path d="M626.171095 740.38484h45.719617v45.719616h-45.719617z" fill="#FA9BB7" p-id="28365"></path><path d="M626.171095 694.750521h45.719617v45.634319h-45.719617zM626.171095 649.030904h45.719617v45.719617h-45.719617zM626.171095 603.311287h45.719617v45.719617h-45.719617z" fill="#FDA8C7" p-id="28366"></path><path d="M626.171095 557.676968h45.719617v45.634319h-45.719617z" fill="#EA7D9A" p-id="28367"></path><path d="M626.171095 511.957351h45.719617v45.719617h-45.719617z" fill="#FDA8C7" p-id="28368"></path><path d="M626.171095 466.323032h45.719617v45.634319h-45.719617z" fill="#B26483" p-id="28369"></path><path d="M626.171095 420.603415h45.719617v45.719617h-45.719617z" fill="#833D55" p-id="28370"></path><path d="M626.171095 374.883798h45.719617v45.719617h-45.719617z" fill="#360C18" p-id="28371"></path><path d="M626.171095 329.249479h45.719617v45.634319h-45.719617z" fill="#FEFFFD" p-id="28372"></path><path d="M626.171095 283.529863h45.719617v45.719616h-45.719617z" fill="#EA7D9A" p-id="28373"></path><path d="M626.171095 237.810246h45.719617v45.719617h-45.719617z" fill="#FDA8C7" p-id="28374"></path><path d="M626.171095 192.175927h45.719617v45.634319h-45.719617z" fill="#FDA8C7" p-id="28375"></path><path d="M626.171095 146.45631h45.719617v45.719617h-45.719617zM626.171095 100.736693h45.719617v45.719617h-45.719617z" fill="#58212F" p-id="28376"></path><path d="M580.536776 877.458392h45.634319v45.719617h-45.634319z" fill="#360C18" p-id="28377"></path><path d="M580.536776 831.824073h45.634319v45.634319h-45.634319z" fill="#EA4A6E" p-id="28378"></path><path d="M580.536776 786.104456h45.634319v45.719617h-45.634319z" fill="#ED799C" p-id="28379"></path><path d="M580.536776 740.38484h45.634319v45.719616h-45.634319z" fill="#FA9BB7" p-id="28380"></path><path d="M580.536776 694.750521h45.634319v45.634319h-45.634319zM580.536776 649.030904h45.634319v45.719617h-45.634319zM580.536776 603.311287h45.634319v45.719617h-45.634319zM580.536776 557.676968h45.634319v45.634319h-45.634319z" fill="#FDA8C7" p-id="28381"></path><path d="M580.536776 511.957351h45.634319v45.719617h-45.634319zM580.536776 466.323032h45.634319v45.634319h-45.634319zM580.536776 420.603415h45.634319v45.719617h-45.634319zM580.536776 374.883798h45.634319v45.719617h-45.634319zM580.536776 329.249479h45.634319v45.634319h-45.634319zM580.536776 283.529863h45.634319v45.719616h-45.634319zM580.536776 237.810246h45.634319v45.719617h-45.634319z" fill="#FDA8C7" p-id="28382"></path><path d="M580.536776 192.175927h45.634319v45.634319h-45.634319zM580.536776 146.45631h45.634319v45.719617h-45.634319z" fill="#FDA8C7" p-id="28383"></path><path d="M580.536776 100.736693h45.634319v45.719617h-45.634319z" fill="#58212F" p-id="28384"></path><path d="M534.81716 831.824073h45.719616v45.634319H534.81716z" fill="#360C18" p-id="28385"></path><path d="M534.81716 786.104456h45.719616v45.719617H534.81716zM534.81716 740.38484h45.719616v45.719616H534.81716z" fill="#FA9BB7" p-id="28386"></path><path d="M534.81716 694.750521h45.719616v45.634319H534.81716zM534.81716 649.030904h45.719616v45.719617H534.81716zM534.81716 603.311287h45.719616v45.719617H534.81716zM534.81716 557.676968h45.719616v45.634319H534.81716z" fill="#FDA8C7" p-id="28387"></path><path d="M534.81716 511.957351h45.719616v45.719617H534.81716z" fill="#FDA8C7" p-id="28388"></path><path d="M534.81716 466.323032h45.719616v45.634319H534.81716zM534.81716 420.603415h45.719616v45.719617H534.81716zM534.81716 374.883798h45.719616v45.719617H534.81716z" fill="#360C18" p-id="28389"></path><path d="M534.81716 329.249479h45.719616v45.634319H534.81716z" fill="#863C53" p-id="28390"></path><path d="M534.81716 283.529863h45.719616v45.719616H534.81716z" fill="#EA7D9A" p-id="28391"></path><path d="M534.81716 237.810246h45.719616v45.719617H534.81716z" fill="#FDA8C7" p-id="28392"></path><path d="M534.81716 192.175927h45.719616v45.634319H534.81716zM534.81716 146.45631h45.719616v45.719617H534.81716z" fill="#FDA8C7" p-id="28393"></path><path d="M534.81716 100.736693h45.719616v45.719617H534.81716z" fill="#58212F" p-id="28394"></path><path d="M489.097543 831.824073h45.719617v45.634319h-45.719617z" fill="#360C18" p-id="28395"></path><path d="M489.097543 786.104456h45.719617v45.719617h-45.719617zM489.097543 740.38484h45.719617v45.719616h-45.719617z" fill="#FA9BB7" p-id="28396"></path><path d="M489.097543 694.750521h45.719617v45.634319h-45.719617zM489.097543 649.030904h45.719617v45.719617h-45.719617zM489.097543 603.311287h45.719617v45.719617h-45.719617zM489.097543 557.676968h45.719617v45.634319h-45.719617z" fill="#FDA8C7" p-id="28397"></path><path d="M489.097543 511.957351h45.719617v45.719617h-45.719617z" fill="#FDA8C7" p-id="28398"></path><path d="M489.097543 466.323032h45.719617v45.634319h-45.719617z" fill="#B26483" p-id="28399"></path><path d="M489.097543 420.603415h45.719617v45.719617h-45.719617z" fill="#833D55" p-id="28400"></path><path d="M489.097543 374.883798h45.719617v45.719617h-45.719617z" fill="#360C18" p-id="28401"></path><path d="M489.097543 329.249479h45.719617v45.634319h-45.719617z" fill="#FEFFFD" p-id="28402"></path><path d="M489.097543 283.529863h45.719617v45.719616h-45.719617z" fill="#EA7D9A" p-id="28403"></path><path d="M489.097543 237.810246h45.719617v45.719617h-45.719617z" fill="#FDA8C7" p-id="28404"></path><path d="M489.097543 192.175927h45.719617v45.634319h-45.719617zM489.097543 146.45631h45.719617v45.719617h-45.719617z" fill="#FDA8C7" p-id="28405"></path><path d="M489.097543 100.736693h45.719617v45.719617h-45.719617z" fill="#58212F" p-id="28406"></path><path d="M443.463224 877.458392h45.634319v45.719617h-45.634319z" fill="#360C18" p-id="28407"></path><path d="M443.463224 831.824073h45.634319v45.634319h-45.634319z" fill="#EA4A6E" p-id="28408"></path><path d="M443.463224 786.104456h45.634319v45.719617h-45.634319zM443.463224 740.38484h45.634319v45.719616h-45.634319z" fill="#FA9BB7" p-id="28409"></path><path d="M443.463224 694.750521h45.634319v45.634319h-45.634319zM443.463224 649.030904h45.634319v45.719617h-45.634319zM443.463224 603.311287h45.634319v45.719617h-45.634319zM443.463224 557.676968h45.634319v45.634319h-45.634319z" fill="#FDA8C7" p-id="28410"></path><path d="M443.463224 511.957351h45.634319v45.719617h-45.634319zM443.463224 466.323032h45.634319v45.634319h-45.634319zM443.463224 420.603415h45.634319v45.719617h-45.634319zM443.463224 374.883798h45.634319v45.719617h-45.634319z" fill="#FDA8C7" p-id="28411"></path><path d="M443.463224 329.249479h45.634319v45.634319h-45.634319z" fill="#EA7D9C" p-id="28412"></path><path d="M443.463224 283.529863h45.634319v45.719616h-45.634319zM443.463224 237.810246h45.634319v45.719617h-45.634319z" fill="#FDA8C7" p-id="28413"></path><path d="M443.463224 192.175927h45.634319v45.634319h-45.634319zM443.463224 146.45631h45.634319v45.719617h-45.634319z" fill="#FDA8C7" p-id="28414"></path><path d="M443.463224 100.736693h45.634319v45.719617h-45.634319z" fill="#58212F" p-id="28415"></path><path d="M397.743607 877.458392h45.719617v45.719617h-45.719617z" fill="#360C18" p-id="28416"></path><path d="M397.743607 831.824073h45.719617v45.634319h-45.719617zM397.743607 786.104456h45.719617v45.719617h-45.719617z" fill="#EA4A6E" p-id="28417"></path><path d="M397.743607 740.38484h45.719617v45.719616h-45.719617z" fill="#FA9BB7" p-id="28418"></path><path d="M397.743607 694.750521h45.719617v45.634319h-45.719617z" fill="#FA9BB9" p-id="28419"></path><path d="M397.743607 649.030904h45.719617v45.719617h-45.719617zM397.743607 603.311287h45.719617v45.719617h-45.719617zM397.743607 557.676968h45.719617v45.634319h-45.719617z" fill="#FDA8C7" p-id="28420"></path><path d="M397.743607 511.957351h45.719617v45.719617h-45.719617z" fill="#FDA8C7" p-id="28421"></path><path d="M397.743607 466.323032h45.719617v45.634319h-45.719617z" fill="#FD4E77" p-id="28422"></path><path d="M397.743607 420.603415h45.719617v45.719617h-45.719617zM397.743607 374.883798h45.719617v45.719617h-45.719617zM397.743607 329.249479h45.719617v45.634319h-45.719617zM397.743607 283.529863h45.719617v45.719616h-45.719617zM397.743607 237.810246h45.719617v45.719617h-45.719617z" fill="#FDA8C7" p-id="28423"></path><path d="M397.743607 192.175927h45.719617v45.634319h-45.719617z" fill="#FDA8C7" p-id="28424"></path><path d="M397.743607 146.45631h45.719617v45.719617h-45.719617zM397.743607 100.736693h45.719617v45.719617h-45.719617zM352.02399 877.458392h45.719617v45.719617h-45.719617z" fill="#360C18" p-id="28425"></path><path d="M352.02399 831.824073h45.719617v45.634319h-45.719617zM352.02399 786.104456h45.719617v45.719617h-45.719617z" fill="#EA4A6E" p-id="28426"></path><path d="M352.02399 740.38484h45.719617v45.719616h-45.719617z" fill="#EB7B9B" p-id="28427"></path><path d="M352.02399 694.750521h45.719617v45.634319h-45.719617z" fill="#FA9BB9" p-id="28428"></path><path d="M352.02399 649.030904h45.719617v45.719617h-45.719617zM352.02399 603.311287h45.719617v45.719617h-45.719617zM352.02399 557.676968h45.719617v45.634319h-45.719617z" fill="#FDA8C7" p-id="28429"></path><path d="M352.02399 511.957351h45.719617v45.719617h-45.719617z" fill="#FDA8C7" p-id="28430"></path><path d="M352.02399 466.323032h45.719617v45.634319h-45.719617z" fill="#FD4E77" p-id="28431"></path><path d="M352.02399 420.603415h45.719617v45.719617h-45.719617zM352.02399 374.883798h45.719617v45.719617h-45.719617zM352.02399 329.249479h45.719617v45.634319h-45.719617zM352.02399 283.529863h45.719617v45.719616h-45.719617zM352.02399 237.810246h45.719617v45.719617h-45.719617z" fill="#FDA8C7" p-id="28432"></path><path d="M352.02399 192.175927h45.719617v45.634319h-45.719617z" fill="#FDA8C7" p-id="28433"></path><path d="M352.02399 146.45631h45.719617v45.719617h-45.719617zM306.389671 877.458392h45.634319v45.719617h-45.634319z" fill="#360C18" p-id="28434"></path><path d="M306.389671 831.824073h45.634319v45.634319h-45.634319zM306.389671 786.104456h45.634319v45.719617h-45.634319zM306.389671 740.38484h45.634319v45.719616h-45.634319z" fill="#EA4A6E" p-id="28435"></path><path d="M306.389671 694.750521h45.634319v45.634319h-45.634319zM306.389671 649.030904h45.634319v45.719617h-45.634319z" fill="#FA9BB9" p-id="28436"></path><path d="M306.389671 603.311287h45.634319v45.719617h-45.634319zM306.389671 557.676968h45.634319v45.634319h-45.634319z" fill="#FDA8C7" p-id="28437"></path><path d="M306.389671 511.957351h45.634319v45.719617h-45.634319z" fill="#FDA8C7" p-id="28438"></path><path d="M306.389671 466.323032h45.634319v45.634319h-45.634319z" fill="#EB7D9E" p-id="28439"></path><path d="M306.389671 420.603415h45.634319v45.719617h-45.634319zM306.389671 374.883798h45.634319v45.719617h-45.634319zM306.389671 329.249479h45.634319v45.634319h-45.634319zM306.389671 283.529863h45.634319v45.719616h-45.634319zM306.389671 237.810246h45.634319v45.719617h-45.634319z" fill="#FDA8C7" p-id="28440"></path><path d="M306.389671 192.175927h45.634319v45.634319h-45.634319z" fill="#EE7D99" p-id="28441"></path><path d="M306.389671 146.45631h45.634319v45.719617h-45.634319z" fill="#58212F" p-id="28442"></path><path d="M260.670054 877.458392h45.719617v45.719617h-45.719617z" fill="#360C18" p-id="28443"></path><path d="M260.670054 831.824073h45.719617v45.634319h-45.719617z" fill="#EA4A6E" p-id="28444"></path><path d="M260.670054 786.104456h45.719617v45.719617h-45.719617zM260.670054 740.38484h45.719617v45.719616h-45.719617z" fill="#FF6084" p-id="28445"></path><path d="M260.670054 694.750521h45.719617v45.634319h-45.719617z" fill="#EB7B9B" p-id="28446"></path><path d="M260.670054 649.030904h45.719617v45.719617h-45.719617z" fill="#FA9BB9" p-id="28447"></path><path d="M260.670054 603.311287h45.719617v45.719617h-45.719617z" fill="#FDA8C7" p-id="28448"></path><path d="M260.670054 557.676968h45.719617v45.634319h-45.719617z" fill="#FA9BB9" p-id="28449"></path><path d="M260.670054 511.957351h45.719617v45.719617h-45.719617zM260.670054 466.323032h45.719617v45.634319h-45.719617zM260.670054 420.603415h45.719617v45.719617h-45.719617zM260.670054 374.883798h45.719617v45.719617h-45.719617zM260.670054 329.249479h45.719617v45.634319h-45.719617zM260.670054 283.529863h45.719617v45.719616h-45.719617zM260.670054 237.810246h45.719617v45.719617h-45.719617z" fill="#FDA8C7" p-id="28450"></path><path d="M260.670054 192.175927h45.719617v45.634319h-45.719617zM260.670054 146.45631h45.719617v45.719617h-45.719617z" fill="#58212F" p-id="28451"></path><path d="M214.950437 877.458392h45.719617v45.719617H214.950437z" fill="#360C18" p-id="28452"></path><path d="M214.950437 831.824073h45.719617v45.634319H214.950437z" fill="#EA4A6E" p-id="28453"></path><path d="M214.950437 786.104456h45.719617v45.719617H214.950437z" fill="#FF6084" p-id="28454"></path><path d="M214.950437 740.38484h45.719617v45.719616H214.950437z" fill="#EB7B9B" p-id="28455"></path><path d="M214.950437 694.750521h45.719617v45.634319H214.950437z" fill="#EA4A6E" p-id="28456"></path><path d="M214.950437 649.030904h45.719617v45.719617H214.950437zM214.950437 603.311287h45.719617v45.719617H214.950437z" fill="#FA9BB9" p-id="28457"></path><path d="M214.950437 557.676968h45.719617v45.634319H214.950437z" fill="#FDA8C7" p-id="28458"></path><path d="M214.950437 511.957351h45.719617v45.719617H214.950437zM214.950437 466.323032h45.719617v45.634319H214.950437z" fill="#FDA8C7" p-id="28459"></path><path d="M214.950437 420.603415h45.719617v45.719617H214.950437z" fill="#FA9BB9" p-id="28460"></path><path d="M214.950437 374.883798h45.719617v45.719617H214.950437zM214.950437 329.249479h45.719617v45.634319H214.950437zM214.950437 283.529863h45.719617v45.719616H214.950437z" fill="#FDA8C7" p-id="28461"></path><path d="M214.950437 237.810246h45.719617v45.719617H214.950437z" fill="#58212F" p-id="28462"></path><path d="M214.950437 192.175927h45.719617v45.634319H214.950437z" fill="#58212F" p-id="28463"></path><path d="M169.316118 877.458392h45.634319v45.719617h-45.634319z" fill="#360C18" p-id="28464"></path><path d="M169.316118 831.824073h45.634319v45.634319h-45.634319z" fill="#EA4A6E" p-id="28465"></path><path d="M169.316118 786.104456h45.634319v45.719617h-45.634319z" fill="#FF6084" p-id="28466"></path><path d="M169.316118 740.38484h45.634319v45.719616h-45.634319z" fill="#FDFFFE" p-id="28467"></path><path d="M169.316118 694.750521h45.634319v45.634319h-45.634319z" fill="#EA4A6E" p-id="28468"></path><path d="M169.316118 649.030904h45.634319v45.719617h-45.634319z" fill="#EB7B9B" p-id="28469"></path><path d="M169.316118 603.311287h45.634319v45.719617h-45.634319z" fill="#FA9BB9" p-id="28470"></path><path d="M169.316118 557.676968h45.634319v45.634319h-45.634319z" fill="#FDA8C7" p-id="28471"></path><path d="M169.316118 511.957351h45.634319v45.719617h-45.634319zM169.316118 466.323032h45.634319v45.634319h-45.634319zM169.316118 420.603415h45.634319v45.719617h-45.634319z" fill="#FDA8C7" p-id="28472"></path><path d="M169.316118 374.883798h45.634319v45.719617h-45.634319z" fill="#FA9BB9" p-id="28473"></path><path d="M169.316118 329.249479h45.634319v45.634319h-45.634319zM169.316118 283.529863h45.634319v45.719616h-45.634319zM169.316118 237.810246h45.634319v45.719617h-45.634319z" fill="#58212F" p-id="28474"></path><path d="M123.596501 877.458392h45.719617v45.719617h-45.719617z" fill="#360C18" p-id="28475"></path><path d="M123.596501 831.824073h45.719617v45.634319h-45.719617z" fill="#EA4A6E" p-id="28476"></path><path d="M123.596501 786.104456h45.719617v45.719617h-45.719617z" fill="#FF6084" p-id="28477"></path><path d="M123.596501 740.38484h45.719617v45.719616h-45.719617z" fill="#EB7B9B" p-id="28478"></path><path d="M123.596501 694.750521h45.719617v45.634319h-45.719617zM123.596501 649.030904h45.719617v45.719617h-45.719617z" fill="#360C18" p-id="28479"></path><path d="M123.596501 603.311287h45.719617v45.719617h-45.719617z" fill="#EB7B9B" p-id="28480"></path><path d="M123.596501 557.676968h45.719617v45.634319h-45.719617z" fill="#FA9BB9" p-id="28481"></path><path d="M123.596501 511.957351h45.719617v45.719617h-45.719617zM123.596501 466.323032h45.719617v45.634319h-45.719617z" fill="#FDA8C7" p-id="28482"></path><path d="M123.596501 420.603415h45.719617v45.719617h-45.719617z" fill="#FA9BB9" p-id="28483"></path><path d="M123.596501 374.883798h45.719617v45.719617h-45.719617z" fill="#360C18" p-id="28484"></path><path d="M123.596501 329.249479h45.719617v45.634319h-45.719617z" fill="#58212F" p-id="28485"></path><path d="M77.876885 877.458392h45.719616v45.719617H77.876885z" fill="#360C18" p-id="28486"></path><path d="M77.876885 831.824073h45.719616v45.634319H77.876885zM77.876885 786.104456h45.719616v45.719617H77.876885z" fill="#EA4A6E" p-id="28487"></path><path d="M77.876885 740.38484h45.719616v45.719616H77.876885zM77.876885 649.030904h45.719616v45.719617H77.876885z" fill="#360C18" p-id="28488"></path><path d="M77.876885 603.311287h45.719616v45.719617H77.876885z" fill="#EB7B9B" p-id="28489"></path><path d="M77.876885 557.676968h45.719616v45.634319H77.876885z" fill="#FA9BB9" p-id="28490"></path><path d="M77.876885 511.957351h45.719616v45.719617H77.876885z" fill="#FA9BB9" p-id="28491"></path><path d="M77.876885 466.323032h45.719616v45.634319H77.876885z" fill="#FDA8C7" p-id="28492"></path><path d="M77.876885 420.603415h45.719616v45.719617H77.876885zM77.876885 374.883798h45.719616v45.719617H77.876885zM32.242566 831.824073h45.634319v45.634319H32.242566zM32.242566 786.104456h45.634319v45.719617H32.242566zM32.242566 603.311287h45.634319v45.719617H32.242566zM32.242566 557.676968h45.634319v45.634319H32.242566z" fill="#360C18" p-id="28493"></path><path d="M32.242566 511.957351h45.634319v45.719617H32.242566zM32.242566 466.323032h45.634319v45.634319H32.242566z" fill="#360C18" p-id="28494"></path></svg>